<svg xmlns="http://www.w3.org/2000/svg" xmlns:xlink="http://www.w3.org/1999/xlink" width="150" zoomAndPan="magnify" viewBox="0 0 112.5 49.499998" height="66" preserveAspectRatio="xMidYMid meet" version="1.0"><defs><g/><clipPath id="b2b7752aa4"><path d="M 0.316406 0 L 43 0 L 43 49.003906 L 0.316406 49.003906 Z M 0.316406 0 " clip-rule="nonzero"/></clipPath></defs><g clip-path="url(#b2b7752aa4)"><path stroke-linecap="butt" transform="matrix(0.484897, -0.5623, 0.5623, 0.484897, 0.425531, 41.655245)" fill="none" stroke-linejoin="miter" d="M 0.830751 0.812373 C 15.660642 23.036339 38.541836 23.034064 69.481204 0.813517 " stroke="#ffffff" stroke-width="2" stroke-opacity="1" stroke-miterlimit="4"/></g><g fill="#ffffff" fill-opacity="1"><g transform="translate(37.762024, 37.569941)"><g><path d="M 1.40625 -9 C 1.40625 -10.820312 1.773438 -12.421875 2.515625 -13.796875 C 3.253906 -15.179688 4.269531 -16.253906 5.5625 -17.015625 C 6.851562 -17.773438 8.289062 -18.15625 9.875 -18.15625 C 11.445312 -18.15625 12.804688 -17.816406 13.953125 -17.140625 C 15.109375 -16.472656 15.96875 -15.628906 16.53125 -14.609375 L 16.53125 -17.875 L 19.53125 -17.875 L 19.53125 0 L 16.53125 0 L 16.53125 -3.328125 C 15.945312 -2.285156 15.070312 -1.421875 13.90625 -0.734375 C 12.738281 -0.046875 11.382812 0.296875 9.84375 0.296875 C 8.257812 0.296875 6.828125 -0.09375 5.546875 -0.875 C 4.265625 -1.65625 3.253906 -2.753906 2.515625 -4.171875 C 1.773438 -5.585938 1.40625 -7.195312 1.40625 -9 Z M 16.53125 -8.96875 C 16.53125 -10.3125 16.257812 -11.484375 15.71875 -12.484375 C 15.175781 -13.484375 14.441406 -14.25 13.515625 -14.78125 C 12.585938 -15.320312 11.570312 -15.59375 10.46875 -15.59375 C 9.351562 -15.59375 8.335938 -15.328125 7.421875 -14.796875 C 6.515625 -14.273438 5.789062 -13.515625 5.25 -12.515625 C 4.707031 -11.515625 4.4375 -10.34375 4.4375 -9 C 4.4375 -7.632812 4.707031 -6.441406 5.25 -5.421875 C 5.789062 -4.410156 6.515625 -3.640625 7.421875 -3.109375 C 8.335938 -2.578125 9.351562 -2.3125 10.46875 -2.3125 C 11.570312 -2.3125 12.585938 -2.578125 13.515625 -3.109375 C 14.441406 -3.640625 15.175781 -4.410156 15.71875 -5.421875 C 16.257812 -6.441406 16.53125 -7.625 16.53125 -8.96875 Z M 16.53125 -8.96875 "/></g></g></g><g fill="#ffffff" fill-opacity="1"><g transform="translate(59.803377, 37.569941)"><g><path d="M 5.484375 -14.96875 C 6.003906 -15.988281 6.742188 -16.78125 7.703125 -17.34375 C 8.671875 -17.914062 9.851562 -18.203125 11.25 -18.203125 L 11.25 -15.125 L 10.46875 -15.125 C 7.144531 -15.125 5.484375 -13.320312 5.484375 -9.71875 L 5.484375 0 L 2.515625 0 L 2.515625 -17.875 L 5.484375 -17.875 Z M 5.484375 -14.96875 "/></g></g></g><g fill="#ffffff" fill-opacity="1"><g transform="translate(71.965249, 37.569941)"><g><path d="M 4.046875 -20.765625 C 3.484375 -20.765625 3.003906 -20.960938 2.609375 -21.359375 C 2.210938 -21.753906 2.015625 -22.234375 2.015625 -22.796875 C 2.015625 -23.359375 2.210938 -23.832031 2.609375 -24.21875 C 3.003906 -24.613281 3.484375 -24.8125 4.046875 -24.8125 C 4.585938 -24.8125 5.046875 -24.613281 5.421875 -24.21875 C 5.804688 -23.832031 6 -23.359375 6 -22.796875 C 6 -22.234375 5.804688 -21.753906 5.421875 -21.359375 C 5.046875 -20.960938 4.585938 -20.765625 4.046875 -20.765625 Z M 5.484375 -17.875 L 5.484375 0 L 2.515625 0 L 2.515625 -17.875 Z M 5.484375 -17.875 "/></g></g></g><g fill="#ffffff" fill-opacity="1"><g transform="translate(79.986215, 37.569941)"><g><path d="M 6.125 -15.421875 L 6.125 -4.890625 C 6.125 -4.023438 6.304688 -3.410156 6.671875 -3.046875 C 7.046875 -2.691406 7.691406 -2.515625 8.609375 -2.515625 L 10.796875 -2.515625 L 10.796875 0 L 8.125 0 C 6.46875 0 5.222656 -0.378906 4.390625 -1.140625 C 3.566406 -1.898438 3.15625 -3.148438 3.15625 -4.890625 L 3.15625 -15.421875 L 0.84375 -15.421875 L 0.84375 -17.875 L 3.15625 -17.875 L 3.15625 -22.375 L 6.125 -22.375 L 6.125 -17.875 L 10.796875 -17.875 L 10.796875 -15.421875 Z M 6.125 -15.421875 "/></g></g></g><g fill="#ffffff" fill-opacity="1"><g transform="translate(91.854637, 37.569941)"><g><path d="M 17.90625 -17.875 L 7.140625 8.40625 L 4.078125 8.40625 L 7.59375 -0.203125 L 0.390625 -17.875 L 3.6875 -17.875 L 9.296875 -3.390625 L 14.84375 -17.875 Z M 17.90625 -17.875 "/></g></g></g></svg>