<svg xmlns="http://www.w3.org/2000/svg" xmlns:xlink="http://www.w3.org/1999/xlink" width="150" zoomAndPan="magnify" viewBox="0 0 112.5 49.499998" height="66" preserveAspectRatio="xMidYMid meet" version="1.0"><defs><g/></defs><g fill="#000000" fill-opacity="1"><g transform="translate(11.083644, 37.569941)"><g><path d="M 9.59375 -22.734375 C 12.0625 -22.734375 14.203125 -22.269531 16.015625 -21.34375 C 17.835938 -20.414062 19.234375 -19.09375 20.203125 -17.375 C 21.171875 -15.664062 21.65625 -13.644531 21.65625 -11.3125 C 21.65625 -8.988281 21.171875 -6.972656 20.203125 -5.265625 C 19.234375 -3.554688 17.835938 -2.25 16.015625 -1.34375 C 14.203125 -0.445312 12.0625 0 9.59375 0 L 2.515625 0 L 2.515625 -22.734375 Z M 9.59375 -2.453125 C 12.519531 -2.453125 14.753906 -3.226562 16.296875 -4.78125 C 17.847656 -6.332031 18.625 -8.507812 18.625 -11.3125 C 18.625 -14.144531 17.84375 -16.351562 16.28125 -17.9375 C 14.726562 -19.519531 12.5 -20.3125 9.59375 -20.3125 L 5.484375 -20.3125 L 5.484375 -2.453125 Z M 9.59375 -2.453125 "/></g></g></g><g fill="#000000" fill-opacity="1"><g transform="translate(34.13577, 37.569941)"><g><path d="M 1.40625 -9 C 1.40625 -10.820312 1.773438 -12.421875 2.515625 -13.796875 C 3.253906 -15.179688 4.269531 -16.253906 5.5625 -17.015625 C 6.851562 -17.773438 8.289062 -18.15625 9.875 -18.15625 C 11.445312 -18.15625 12.804688 -17.816406 13.953125 -17.140625 C 15.109375 -16.472656 15.96875 -15.628906 16.53125 -14.609375 L 16.53125 -17.875 L 19.53125 -17.875 L 19.53125 0 L 16.53125 0 L 16.53125 -3.328125 C 15.945312 -2.285156 15.070312 -1.421875 13.90625 -0.734375 C 12.738281 -0.046875 11.382812 0.296875 9.84375 0.296875 C 8.257812 0.296875 6.828125 -0.09375 5.546875 -0.875 C 4.265625 -1.65625 3.253906 -2.753906 2.515625 -4.171875 C 1.773438 -5.585938 1.40625 -7.195312 1.40625 -9 Z M 16.53125 -8.96875 C 16.53125 -10.3125 16.257812 -11.484375 15.71875 -12.484375 C 15.175781 -13.484375 14.441406 -14.25 13.515625 -14.78125 C 12.585938 -15.320312 11.570312 -15.59375 10.46875 -15.59375 C 9.351562 -15.59375 8.335938 -15.328125 7.421875 -14.796875 C 6.515625 -14.273438 5.789062 -13.515625 5.25 -12.515625 C 4.707031 -11.515625 4.4375 -10.34375 4.4375 -9 C 4.4375 -7.632812 4.707031 -6.441406 5.25 -5.421875 C 5.789062 -4.410156 6.515625 -3.640625 7.421875 -3.109375 C 8.335938 -2.578125 9.351562 -2.3125 10.46875 -2.3125 C 11.570312 -2.3125 12.585938 -2.578125 13.515625 -3.109375 C 14.441406 -3.640625 15.175781 -4.410156 15.71875 -5.421875 C 16.257812 -6.441406 16.53125 -7.625 16.53125 -8.96875 Z M 16.53125 -8.96875 "/></g></g></g><g fill="#000000" fill-opacity="1"><g transform="translate(56.177123, 37.569941)"><g><path d="M 17.90625 -17.875 L 7.140625 8.40625 L 4.078125 8.40625 L 7.59375 -0.203125 L 0.390625 -17.875 L 3.6875 -17.875 L 9.296875 -3.390625 L 14.84375 -17.875 Z M 17.90625 -17.875 "/></g></g></g><g fill="#000000" fill-opacity="1"><g transform="translate(74.534048, 37.569941)"><g><path d="M 5.484375 -24.125 L 5.484375 0 L 2.515625 0 L 2.515625 -24.125 Z M 5.484375 -24.125 "/></g></g></g><g fill="#000000" fill-opacity="1"><g transform="translate(82.555014, 37.569941)"><g><path d="M 17.90625 -17.875 L 7.140625 8.40625 L 4.078125 8.40625 L 7.59375 -0.203125 L 0.390625 -17.875 L 3.6875 -17.875 L 9.296875 -3.390625 L 14.84375 -17.875 Z M 17.90625 -17.875 "/></g></g></g></svg>